<svg viewBox="0 0 1000 1000" xmlns="http://www.w3.org/2000/svg">
    <!-- Background -->
    <rect width="1000" height="1000" fill="#000000"/>

    <!-- Red and dark blue diagonal shapes in the background -->
    <polygon points="580,1000 1000,1000 1000,550" fill="#460c0c"/>
    <polygon points="780,1000 1000,1000 1000,750" fill="#0c0c32"/>

    <!-- Robot Body (main speech bubble shape) -->
    <path d="M100,300 Q100,150 250,150 L750,150 Q900,150 900,300 L900,700 Q900,850 750,850 L550,850 L500,950 L450,850 L250,850 Q100,850 100,700 Z" fill="#42a5f5"/>

    <!-- Robot Head Antenna Base -->
    <rect x="450" y="50" width="100" height="150" fill="#1e88e5"/>
    <!-- Robot Head Antenna Top -->
    <circle cx="500" cy="100" r="70" fill="#1e88e5"/>

    <!-- Robot Eyes -->
    <circle cx="350" cy="450" r="70" fill="#1565c0"/>
    <circle cx="650" cy="450" r="70" fill="#1565c0"/>

    <!-- Robot Mouth -->
    <rect x="300" y="600" width="300" height="50" rx="25" ry="25" fill="#1565c0"/>

    <!-- Robot Ear/Side piece -->
    <path d="M900,300 L900,500 Q850,500 850,450 L850,350 Q850,300 900,300 Z" fill="#1e88e5"/>

    <!-- Faint text on the left sidebar -->
    <rect x="0" y="0" width="80" height="1000" fill="#212121"/>
    <rect x="10" y="160" width="60" height="10" fill="#424242" opacity="0.5"/>
    <rect x="10" y="240" width="50" height="10" fill="#424242" opacity="0.5"/>

  </svg>