<svg width="590" height="590" viewBox="0 0 590 590" xmlns="http://www.w3.org/2000/svg">
  <defs>
    <linearGradient id="bubbleGradient" x1="50%" y1="0%" x2="50%" y2="100%">
      <stop offset="0%" style="stop-color:#58C8F5;stop-opacity:1" /> <!-- Slightly lighter blue for top of gradient -->
      <stop offset="100%" style="stop-color:#3BACE2;stop-opacity:1" /> <!-- Original blue for bottom of gradient -->
    </linearGradient>
  </defs>
  <rect width="590" height="590" fill="black"/>

  <!-- Ears: Darker color -->
  <rect x="35" y="230" width="40" height="100" rx="20" ry="20" fill="#2A67A0"/> <!-- Darker than original #2F72B0 -->
  <rect x="515" y="230" width="40" height="100" rx="20" ry="20" fill="#2A67A0"/> <!-- Darker than original #2F72B0 -->

  <!-- Main Body: Rounder corners (R=60), gradient fill, rounded tail tip -->
  <path d="M 130,75
           L 460,75
           A 60,60 0 0 1 520,135
           L 520,410
           Q 520,440 490,460
           L 536.13,522.91
           Q 545,535 531.45,528.58
           L 450,490
           Q 420,470 380,470
           L 130,470
           A 60,60 0 0 1 70,410
           L 70,135
           A 60,60 0 0 1 130,75 Z"
        fill="url(#bubbleGradient)"/>

  <!-- Antenna: Darker color, connection ensured -->
  <g fill="#2A67A0"> <!-- Darker than original #2F72B0 -->
    <!-- Stem: connects to bottom of circle and top of head. Bottom of stem at y=75, top at y=40 -->
    <rect x="287.5" y="35" width="15" height="40"/>
    <!-- Ball: on top of the stem. Bottom of circle at y=22+18=40 -->
    <circle cx="295" cy="22" r="18"/>
  </g>

  <!-- Eyes: Slightly darker color -->
  <circle cx="200" cy="220" r="35" fill="#101010"/> <!-- Darker than original #1A1A1A -->
  <circle cx="390" cy="220" r="35" fill="#101010"/> <!-- Darker than original #1A1A1A -->

  <!-- Mouth: Slightly darker color -->
  <rect x="180" y="330" width="230" height="40" rx="20" ry="20" fill="#101010"/> <!-- Darker than original #1A1A1A -->

</svg>